<svg viewBox="0 0 370.7 262.1" xmlns="http://www.w3.org/2000/svg"><g stroke="#d43d22" stroke-miterlimit="10" stroke-width="8"><g fill="#fb7e68"><path d="M184 257.3s99 2.6 180.8-69.1c0 0-71.5-72.8-178.5-74.9z"/><path d="M212.8 252.5s91.7-37.4 137.9-135.9c0 0-94.7-38-193.5 3.1z"/><path d="M235.9 237.1s70.7-69.3 76.1-178c0 0-102.1.7-178 76.1z"/><path d="M251.1 213s38-91.4.6-193.6c0 0-93.7 40.6-134.1 139.6z"/><path d="M186.6 256.3s-99 2.6-180.8-69.1c0 0 71.5-72.8 178.5-74.9z"/><path d="M157.9 251.5S66.2 214.1 20 115.6c0 0 94.7-38 193.5 3.1z"/><path d="M134.8 236.1s-70.7-69.3-76.1-178c0 0 102.1.7 178 76.1z"/><path d="M119.6 212s-38-91.4-.6-193.6c0 0 93.7 40.6 134.1 139.6z"/><path d="M113.6 185.5s-1-99 72-179.7c0 0 71.7 72.7 72 179.7z"/></g><circle cx="185.1" cy="186.1" fill="#fff" r="72"/><circle cx="185.4" cy="186.1" fill="#fb7e68" r="36"/></g></svg>